PathFileType	4	(X/Y/Z)	/Users/itak/Documents/Research/Walk-IL/dataset/trc/00146_00007.trc
DataRate	CameraRate	NumFrames	NumMarkers	Units	OrigDataRate	OrigDataStartFrame	OrigNumFrames
100.000000	100.000000	4	53	mm	100.000000	137	550
Frame#	Time	RPSI			LPSI			L3			STRN			T10			C7			CLAV			RBAK			LBAK			LSHO			LUPA			LAEL			LAOL			LWTS			LWPS			LFRA			LIFD			LHPS			LHTS			RSHO			RUPA			RAEL			RAOL			RWTS			RWPS			RFRA			RIFD			RHTS			RHPS			RBHD			LFHD			RFHD			LBHD			LHIP			RHIP			RASI			LASI			LKNE			LTHI			LANK			LTIP			LTOE			LMT1			LMT5			LHEE			RKNE			RTHI			RANK			RTIP			RTOE			RMT1			RMT5			RHEE			
		X1	Y1	Z1	X2	Y2	Z2	X3	Y3	Z3	X4	Y4	Z4	X5	Y5	Z5	X6	Y6	Z6	X7	Y7	Z7	X8	Y8	Z8	X9	Y9	Z9	X10	Y10	Z10	X11	Y11	Z11	X12	Y12	Z12	X13	Y13	Z13	X14	Y14	Z14	X15	Y15	Z15	X16	Y16	Z16	X17	Y17	Z17	X18	Y18	Z18	X19	Y19	Z19	X20	Y20	Z20	X21	Y21	Z21	X22	Y22	Z22	X23	Y23	Z23	X24	Y24	Z24	X25	Y25	Z25	X26	Y26	Z26	X27	Y27	Z27	X28	Y28	Z28	X29	Y29	Z29	X30	Y30	Z30	X31	Y31	Z31	X32	Y32	Z32	X33	Y33	Z33	X34	Y34	Z34	X35	Y35	Z35	X36	Y36	Z36	X37	Y37	Z37	X38	Y38	Z38	X39	Y39	Z39	X40	Y40	Z40	X41	Y41	Z41	X42	Y42	Z42	X43	Y43	Z43	X44	Y44	Z44	X45	Y45	Z45	X46	Y46	Z46	X47	Y47	Z47	X48	Y48	Z48	X49	Y49	Z49	X50	Y50	Z50	X51	Y51	Z51	X52	Y52	Z52	X53	Y53	Z53	

138	1.37	-831.966552734375	1125.806640625	1295.038452148438	-843.967529296875	1124.619262695312	1160.530639648438	-842.8617553710938	1162.063842773438	1226.988891601562	-611.7096557617188	1345.859985351562	1211.104370117188	-865.5209350585938	1316.328979492188	1233.189697265625	-809.4296264648438	1605.030151367188	1216.46630859375	-637.30126953125	1483.16162109375	1208.476318359375	-871.2425537109375	1426.620361328125	1309.420532226562	-826.6397705078125	1585.6337890625	1115.296142578125	-747.964599609375	1562.767333984375	1038.57470703125	-785.0784301757812	1432.614624023438	972.9009399414062	-785.3353881835938	1212.587036132812	951.6895751953125	-848.210205078125	1204.98828125	1014.211181640625	-683.8580932617188	955.3931274414062	992.9847412109375	-766.7839965820312	929.1176147460938	972.1260375976562	-771.5278930664062	1095.775268554688	948.5841064453125	-666.1873168945312	763.1055908203125	1014.064819335938	-738.4146118164062	854.0891723632812	971.509033203125	-669.9987182617188	866.932861328125	982.9168701171875	-737.7843627929688	1580.162231445312	1391.745727539062	-753.9220581054688	1508.836059570312	1457.544921875	-779.7562255859375	1216.060913085938	1486.275146484375	-800.0608520507812	1215.163940429688	1392.483642578125	-646.176025390625	967.428955078125	1456.477661132812	-717.071533203125	952.7998657226562	1496.449096679688	-756.7646484375	1140.918579101562	1499.298095703125	-625.0040893554688	773.0718994140625	1436.354370117188	-617.5255737304688	859.8134765625	1457.706420898438	-681.4973754882812	851.6887817382812	1493.533447265625	-748.996337890625	1768.837646484375	1289.726684570312	-615.6687622070312	1828.813842773438	1124.80517578125	-590.37939453125	1839.894409179688	1252.090087890625	-782.1857299804688	1761.52490234375	1158.9892578125	-755.1908569335938	1031.337158203125	1044.608520507812	-701.916748046875	1024.60693359375	1407.443115234375	-619.9179077148438	1092.016967773438	1349.621459960938	-647.462158203125	1094.120971679688	1084.4423828125	-553.3903198242188	553.6610717773438	1077.087768554688	-626.4871826171875	691.4537963867188	1052.248046875	-842.8104858398438	111.0314102172852	1045.783813476562	-731.7341918945312	344.1146240234375	1039.689331054688	-627.3565673828125	46.74367141723633	1068.202758789062	-695.606689453125	57.43994522094727	1113.4990234375	-733.1324462890625	68.09870910644531	1005.778625488281	-900.7660522460938	130.39453125	1114.983764648438	-730.2596435546875	532.2654418945312	1351.088134765625	-689.9510498046875	808.4480590820312	1392.056030273438	-883.6527099609375	31.85674285888672	1327.592407226562	-763.6253051757812	398.2908935546875	1360.305297851562	-658.6968383789062	47.75746536254883	1253.055908203125	-720.4950561523438	36.71848678588867	1219.727416992188	-748.372314453125	43.43725967407227	1338.486206054688	-945.7549438476562	33.06473922729492	1284.834106445312	
139	1.38	-830.2235107421875	1125.8857421875	1295.734252929688	-842.34716796875	1124.815063476562	1161.19140625	-841.107666015625	1162.324462890625	1227.778198242188	-609.0709838867188	1345.425170898438	1211.505615234375	-862.9963989257812	1316.691284179688	1234.24853515625	-805.8733520507812	1605.171630859375	1217.421142578125	-634.1853637695312	1482.839965820312	1208.851806640625	-868.0615234375	1427.008666992188	1310.604370117188	-823.5303955078125	1585.915161132812	1116.339111328125	-745.1454467773438	1562.79296875	1039.308959960938	-783.1707763671875	1432.851806640625	973.7675170898438	-784.523193359375	1212.7861328125	952.5798950195312	-847.2606811523438	1205.52197265625	1015.338623046875	-684.3181762695312	955.0537109375	993.6880493164062	-767.4673461914062	929.224609375	973.0657958984375	-771.4060668945312	1095.887817382812	949.5015258789062	-667.7112426757812	762.6756591796875	1014.859069824219	-739.4804077148438	854.0540161132812	972.395263671875	-670.9488525390625	866.5000610351562	983.6232299804688	-733.7709350585938	1580.088989257812	1392.451782226562	-749.8660278320312	1508.860473632812	1458.33935546875	-776.2737426757812	1216.275024414062	1487.923461914062	-796.9234008789062	1215.156860351562	1394.230224609375	-642.76708984375	967.5816650390625	1458.337768554688	-713.746826171875	952.9346923828125	1498.348266601562	-753.3096313476562	1141.110961914062	1500.999633789062	-621.5811767578125	773.2267456054688	1438.1591796875	-614.3021240234375	859.9298095703125	1459.630737304688	-678.171875	851.7816162109375	1495.381591796875	-745.0581665039062	1768.399047851562	1290.81201171875	-612.5771484375	1828.81103515625	1125.346313476562	-586.6712646484375	1839.597045898438	1252.54345703125	-778.9085083007812	1761.374877929688	1160.201049804688	-753.567626953125	1031.564208984375	1045.12109375	-700.4971313476562	1024.351928710938	1408.014892578125	-618.1270141601562	1091.59423828125	1350.268310546875	-645.9019165039062	1094.024047851562	1085.135375976562	-545.7217407226562	556.5352172851562	1078.431884765625	-620.9720458984375	693.3302612304688	1053.4345703125	-833.4908447265625	112.3681106567383	1050.26904296875	-723.58837890625	346.0905151367188	1043.1220703125	-617.4139404296875	49.39252853393555	1070.792602539062	-685.2459106445312	59.58594131469727	1116.6533203125	-723.857177734375	70.33712005615234	1009.225341796875	-890.8207397460938	131.3027191162109	1119.962646484375	-729.8995971679688	532.0730590820312	1351.640258789062	-688.7183227539062	808.1447143554688	1392.563354492188	-883.730224609375	31.87001800537109	1327.576293945312	-763.4410400390625	398.1388549804688	1360.661254882812	-658.8571166992188	47.87595748901367	1252.959350585938	-720.5794067382812	36.73466873168945	1219.76806640625	-748.443359375	43.46757125854492	1338.531494140625	-945.7908935546875	33.00969314575195	1284.843383789062	
140	1.39	-828.3616333007812	1125.978515625	1296.411010742188	-840.5424194335938	1125.043579101562	1161.819702148438	-839.2049560546875	1162.611572265625	1228.536499023438	-606.277587890625	1345.003173828125	1211.919555664062	-860.3342895507812	1317.05126953125	1235.264526367188	-802.1883544921875	1605.3017578125	1218.290405273438	-630.9395141601562	1482.519409179688	1209.208251953125	-864.7661743164062	1427.402465820312	1311.7197265625	-820.2722778320312	1586.17626953125	1117.305053710938	-742.1529541015625	1562.790893554688	1039.988159179688	-781.0863647460938	1433.066772460938	974.5729370117188	-783.5956420898438	1212.979858398438	953.419921875	-846.2141723632812	1206.07666015625	1016.406066894531	-684.78125	954.6704711914062	994.3496704101562	-768.1483764648438	929.323974609375	973.9766235351562	-771.2120361328125	1095.990112304688	950.3646240234375	-669.334228515625	762.1835327148438	1015.642456054688	-740.5842895507812	854.0029907226562	973.2568359375	-671.943115234375	866.0247802734375	984.2974853515625	-729.6821899414062	1580.04736328125	1393.09765625	-745.7411499023438	1508.915771484375	1459.075805664062	-772.64599609375	1216.500732421875	1489.473510742188	-793.5994873046875	1215.157470703125	1395.892578125	-639.1524658203125	967.7642211914062	1460.050170898438	-710.2230834960938	953.1025390625	1500.140747070312	-749.685791015625	1141.317138671875	1502.6005859375	-617.9942016601562	773.39599609375	1439.89501953125	-610.9134521484375	860.0715942382812	1461.460327148438	-674.6510009765625	851.911865234375	1497.150512695312	-741.0093994140625	1767.955322265625	1291.822265625	-609.4069213867188	1828.820922851562	1125.8037109375	-582.8657836914062	1839.302001953125	1252.906494140625	-775.545166015625	1761.227416992188	1161.362670898438	-751.8273315429688	1031.850219726562	1045.644897460938	-698.9369506835938	1024.073364257812	1408.5751953125	-616.2251586914062	1091.173706054688	1350.9296875	-644.1239013671875	1093.9296875	1085.836181640625	-538.3258056640625	559.4083862304688	1079.60888671875	-615.5864868164062	695.2282104492188	1054.513549804688	-822.8607788085938	112.7148132324219	1054.768920898438	-715.11279296875	347.5262756347656	1046.443603515625	-605.9038696289062	52.13126754760742	1073.785034179688	-673.4154052734375	61.56241989135742	1120.07568359375	-713.0426025390625	71.97479248046875	1012.903564453125	-879.7630004882812	131.0811309814453	1124.866333007812	-729.4490356445312	531.8544311523438	1352.154907226562	-687.3917846679688	807.8223876953125	1393.04443359375	-883.818115234375	31.89138603210449	1327.535278320312	-763.2281494140625	397.9737854003906	1360.972534179688	-659.0136108398438	47.98979568481445	1252.875610351562	-720.6338500976562	36.76168823242188	1219.814086914062	-748.5197143554688	43.49825668334961	1338.578979492188	-945.8241577148438	32.96576309204102	1284.827270507812	
141	1.4	-826.381103515625	1126.0703125	1297.068481445312	-838.57421875	1125.292236328125	1162.43310546875	-837.1610107421875	1162.919189453125	1229.273315429688	-603.3273315429688	1344.593627929688	1212.352294921875	-857.5377807617188	1317.408203125	1236.2431640625	-798.376953125	1605.421630859375	1219.07861328125	-627.5585327148438	1482.196533203125	1209.553588867188	-861.3583374023438	1427.803100585938	1312.772338867188	-816.8576049804688	1586.41064453125	1118.197998046875	-738.98583984375	1562.75537109375	1040.621215820312	-778.8123168945312	1433.249877929688	975.32080078125	-782.5397338867188	1213.163818359375	954.2144775390625	-845.0586547851562	1206.64892578125	1017.412902832031	-685.2305297851562	954.2373657226562	994.964111328125	-768.8155517578125	929.4109497070312	974.8561401367188	-770.9321899414062	1096.076171875	951.1763305664062	-671.0413208007812	761.6281127929688	1016.401977539062	-741.7216186523438	853.9317016601562	974.0899658203125	-672.9777221679688	865.5016479492188	984.9342041015625	-725.5147094726562	1580.037109375	1393.689086914062	-741.5462646484375	1509.001953125	1459.759765625	-768.87255859375	1216.73583984375	1490.917236328125	-790.0902709960938	1215.164306640625	1397.459838867188	-635.3346557617188	967.9734497070312	1461.606811523438	-706.4935302734375	953.3025512695312	1501.818237304688	-745.898193359375	1141.536010742188	1504.096557617188	-614.2388916015625	773.58056640625	1441.563354492188	-607.3403930664062	860.2438354492188	1463.177490234375	-670.9254150390625	852.0869140625	1498.83642578125	-736.8558959960938	1767.508911132812	1292.751708984375	-606.15087890625	1828.832885742188	1126.177978515625	-578.9627685546875	1839.011474609375	1253.17822265625	-772.0853881835938	1761.072021484375	1162.469482421875	-749.9758911132812	1032.182250976562	1046.1865234375	-697.2257080078125	1023.765686035156	1409.127197265625	-614.2108764648438	1090.74853515625	1351.603149414062	-642.1361083984375	1093.832641601562	1086.540649414062	-531.1979370117188	562.2381591796875	1080.6611328125	-610.3208618164062	697.1094360351562	1055.506225585938	-810.9335327148438	112.0824127197266	1059.222290039062	-706.2361450195312	348.3593139648438	1049.603515625	-592.9237060546875	54.83903884887695	1077.082153320312	-660.1727905273438	63.28047180175781	1123.690673828125	-700.7494506835938	72.95822906494141	1016.739685058594	-867.5860595703125	129.7688903808594	1129.632568359375	-728.9011840820312	531.6046752929688	1352.618530273438	-685.9877319335938	807.471923828125	1393.505126953125	-883.913330078125	31.92113494873047	1327.469116210938	-762.9695434570312	397.7953186035156	1361.231689453125	-659.1697387695312	48.09688568115234	1252.8037109375	-720.6576538085938	36.79962539672852	1219.86669921875	-748.599365234375	43.5326042175293	1338.625366210938	-945.85498046875	32.93457412719727	1284.78564453125	
